<?xml version="1.0" encoding="UTF-8" standalone="no"?>
<!-- Generator: Adobe Illustrator 19.0.0, SVG Export Plug-In . SVG Version: 6.00 Build 0)  -->

<svg
   xmlns:dc="http://purl.org/dc/elements/1.1/"
   xmlns:cc="http://creativecommons.org/ns#"
   xmlns:rdf="http://www.w3.org/1999/02/22-rdf-syntax-ns#"
   xmlns:svg="http://www.w3.org/2000/svg"
   xmlns="http://www.w3.org/2000/svg"
   xmlns:sodipodi="http://sodipodi.sourceforge.net/DTD/sodipodi-0.dtd"
   xmlns:inkscape="http://www.inkscape.org/namespaces/inkscape"
   version="1.1"
   id="Capa_1"
   x="0px"
   y="0px"
   viewBox="0 0 64 64"
   xml:space="preserve"
   inkscape:version="0.91 r13725"
   sodipodi:docname="ewz_typ_3.svg"
   width="64"
   height="64"
   inkscape:export-filename="D:\Braugarage\Anlage\KleinerBrauhelfer\kleiner-brauhelfer-app\kleiner-brauhelfer-app\images\ewz_typ_3@2x.png"
   inkscape:export-xdpi="67.5"
   inkscape:export-ydpi="67.5"><metadata
     id="metadata3826"><rdf:RDF><cc:Work
         rdf:about=""><dc:format>image/svg+xml</dc:format><dc:type
           rdf:resource="http://purl.org/dc/dcmitype/StillImage" /><dc:title></dc:title></cc:Work></rdf:RDF></metadata><defs
     id="defs3824" /><sodipodi:namedview
     pagecolor="#ffffff"
     bordercolor="#666666"
     borderopacity="1"
     objecttolerance="10"
     gridtolerance="10"
     guidetolerance="10"
     inkscape:pageopacity="0"
     inkscape:pageshadow="2"
     inkscape:window-width="1920"
     inkscape:window-height="1137"
     id="namedview3822"
     showgrid="false"
     inkscape:zoom="2.6074563"
     inkscape:cx="-21.473025"
     inkscape:cy="-12.35894"
     inkscape:window-x="-8"
     inkscape:window-y="-8"
     inkscape:window-maximized="1"
     inkscape:current-layer="Capa_1" /><g
     id="g3772"
     transform="matrix(0.11354133,0,0,0.11354133,2.6846092,3.9585062)"><path
       style="fill:#5bd185"
       d="m 86.856,206.582 c 12.855,12.856 31.066,17.095 47.454,12.719 4.377,-16.388 0.138,-34.598 -12.719,-47.455 -12.856,-12.856 -31.067,-17.095 -47.455,-12.719 -4.376,16.388 -0.137,34.597 12.72,47.455 z"
       id="path3774"
       inkscape:connector-curvature="0" /><path
       style="fill:#ffc16d"
       d="m 430.768,224.205 c -35.035,112.779 -156.606,200.547 -287.801,165.394 -7.459,5.296 -15.016,11.748 -19.506,24.607 22.962,19.289 46.861,34.496 71.012,45.684 126.806,58.741 260.53,6.655 301.814,-147.417 4.736,-17.675 8.65,-58.816 2.756,-91.096 -20.107,-17.01 -22.886,-36.288 -25.273,-49.315 -8.208,-1.155 -20.537,2.394 -27.409,9.636 -3.01,22.631 0.416,37.442 -15.593,42.507 z"
       id="path3776"
       inkscape:connector-curvature="0" /><path
       style="fill:#ff4060"
       d="m 239.689,368.563 c 0,-44.947 -25.822,-83.864 -63.441,-102.726 -15.465,-7.754 -32.925,-12.118 -51.403,-12.118 C 61.418,253.719 10,305.137 10,368.563 c 0,63.428 51.417,114.844 114.843,114.844 25.975,0 49.93,-8.628 69.169,-23.168 l 0.461,-0.35 c -24.15,-11.188 -48.05,-26.396 -71.012,-45.684 4.489,-12.858 12.046,-19.312 19.506,-24.607 32.203,8.628 63.826,9.851 93.732,5.116 l 0.271,-1.21 c 1.778,-8.029 2.719,-16.375 2.719,-24.941 z"
       id="path3778"
       inkscape:connector-curvature="0" /><path
       style="fill:#c8e27c"
       d="m 176.251,265.839 c 37.617,18.862 63.438,57.778 63.438,102.724 0,8.566 -0.941,16.912 -2.719,24.942 l -0.271,1.21 c 68.286,-10.813 127.618,-52.689 164.456,-108.391 l -0.21,-0.689 C 389.974,251.397 361.674,233.165 367.032,202.974 382.013,118.536 351.985,89.368 316.101,84.578 280.217,79.789 242.91,99.968 235.223,185.38 c -2.996,33.28 -39.783,40.085 -58.709,79.889 l -0.263,0.57 z"
       id="path3780"
       inkscape:connector-curvature="0" /></g><path
     d="m 60.463519,28.88991 c -0.04724,-0.258647 -0.182688,-0.492996 -0.383542,-0.662853 -1.880245,-1.590601 -2.197707,-3.344475 -2.452833,-4.753636 l -0.03338,-0.183596 c -0.08811,-0.480961 -0.474375,-0.85156 -0.958515,-0.919685 -0.167133,-0.0235 -0.34403,-0.03554 -0.525811,-0.03554 -1.080572,0 -2.602934,0.4553 -3.568149,1.472291 -0.164635,0.173604 -0.270342,0.394783 -0.301907,0.63197 -0.08118,0.610172 -0.122965,1.168568 -0.159752,1.661224 -0.139089,1.856514 -0.262054,2.053394 -0.827603,2.232336 -0.354476,0.112178 -0.631517,0.390695 -0.741765,0.745625 -0.532622,1.714702 -1.239418,3.355601 -2.094724,4.903737 -0.422488,-0.806598 -0.88937,-1.532127 -1.323892,-2.207243 -1.062747,-1.651118 -1.902272,-2.955482 -1.615466,-4.571969 0.929449,-5.239252 0.457685,-9.185947 -1.402577,-11.730636 -1.035949,-1.417109 -2.51176,-2.383232 -4.305259,-2.83456 C 40.125317,9.8519807 42.06097,8.5891737 43.13246,8.3020277 43.738202,8.1397757 44.097675,7.5171161 43.935311,6.911373 43.772946,6.3057433 43.150286,5.9459311 42.54477,6.1085223 c -2.212353,0.592799 -4.575489,2.7690464 -5.026815,6.2450007 -1.812119,-0.0051 -3.457901,0.548291 -4.812222,1.63034 -2.474747,1.977322 -3.969973,5.651746 -4.444235,10.920972 -0.142721,1.585605 -1.168453,2.510739 -2.588288,3.790917 -1.158916,1.045035 -2.449882,2.211786 -3.484016,3.97565 -1.288125,-0.52456 -2.669924,-0.864843 -4.112807,-0.988036 0.408976,-2.674126 2.289788,-3.895149 3.340499,-4.176618 0.605747,-0.162251 0.965219,-0.784911 0.802854,-1.390541 -0.162368,-0.605743 -0.785029,-0.965442 -1.390546,-0.80285 -0.570544,0.152826 -1.150854,0.412268 -1.706185,0.770832 -0.258306,-1.274956 -0.883237,-2.470773 -1.82949,-3.416914 -1.267803,-1.267801 -2.953551,-1.965967 -4.746596,-1.965967 -0.586895,0 -1.171407,0.07664 -1.73741,0.22765 -0.392512,0.104799 -0.699187,0.411474 -0.803985,0.803987 -0.6168706,2.310225 0.04916,4.794622 1.738203,6.484004 1.175268,1.175266 2.710232,1.859921 4.356581,1.953706 -0.143517,0.469834 -0.250245,0.96987 -0.312238,1.500107 -7.3177389,0.549881 -13.1034638,6.679295 -13.1034638,14.134873 0,7.816072 6.3588817,14.174954 14.1748398,14.174954 2.904841,0 5.671843,-0.863369 8.040655,-2.501089 0.373098,0.163728 0.747444,0.321323 1.123492,0.469608 3.41714,1.347849 6.870613,2.031368 10.26425,2.031368 5.458613,0 10.524827,-1.783507 14.650918,-5.157842 4.31264,-3.526935 7.491116,-8.745635 9.191511,-15.091913 0.554876,-2.069859 1.044353,-6.946913 0.333244,-10.840813 z M 27.19398,30.382298 c 1.527245,-1.377257 3.106491,-2.801406 3.329146,-5.273768 0.416583,-4.628512 1.627728,-7.774515 3.600055,-9.350355 1.170837,-0.935467 2.618035,-1.296188 4.301853,-1.071149 1.662926,0.221973 2.946625,0.936943 3.815329,2.125266 1.48058,2.025351 1.817002,5.387764 0.999732,9.993681 -0.442471,2.493481 0.769697,4.376564 1.941897,6.19788 0.65695,1.020623 1.333202,2.072924 1.793044,3.297922 -3.826683,5.526056 -9.6333,9.555979 -16.022611,11.031675 0.0545,-0.506622 0.0822,-1.016989 0.0822,-1.527699 0,-5.121735 -2.730783,-9.617631 -6.812593,-12.108842 0.849516,-1.398262 1.925206,-2.370628 2.971943,-3.314611 z M 12.073568,22.997002 c 0.156914,-0.01657 0.314623,-0.0251 0.4729,-0.0251 1.186393,0 2.301937,0.462 3.140781,1.300843 0.953973,0.953974 1.414837,2.291718 1.275522,3.614134 -0.1568,0.01657 -0.314623,0.02498 -0.472558,0.02498 l -2.27e-4,0 c -1.186622,0 -2.302165,-0.462 -3.141008,-1.300731 -0.953861,-0.953974 -1.414611,-2.291491 -1.27541,-3.614134 z m 4.785881,34.712763 c -6.563938,0 -11.9040135,-5.340076 -11.9040135,-11.904127 0,-6.564052 5.3400755,-11.904127 11.9040135,-11.904127 6.564051,0 11.90424,5.340075 11.90424,11.904127 0,0.654452 -0.05347,1.307769 -0.159185,1.950526 -0.730412,0.09424 -1.465818,0.154076 -2.204632,0.179282 0.155552,-0.696348 0.236847,-1.407912 0.236847,-2.129808 0,-1.278703 -0.246044,-2.526976 -0.731205,-3.709963 -0.23787,-0.579969 -0.900837,-0.857691 -1.481374,-0.619595 -0.580084,0.237983 -0.857577,0.901177 -0.619596,1.481374 0.37253,0.908217 0.561349,1.866392 0.561349,2.848184 0,0.713948 -0.101166,1.415292 -0.298954,2.094383 -1.625004,-0.104571 -3.252391,-0.373096 -4.855822,-0.802737 -0.326545,-0.08754 -0.675344,-0.02487 -0.951136,0.17088 -1.009155,0.716446 -2.026145,1.617623 -2.62939,3.345494 -0.155438,0.44531 -0.01941,0.94035 0.34176,1.243733 2.08564,1.752056 4.264952,3.237291 6.509664,4.442985 -1.718221,0.925476 -3.631392,1.409389 -5.622566,1.409389 z M 57.936884,39.143147 C 54.82165,50.768983 46.728652,57.709765 36.287959,57.709765 c -6.095126,0 -12.528944,-2.498932 -18.199766,-7.053073 0.300544,-0.53955 0.672165,-0.910944 1.07149,-1.227951 2.131965,0.526037 4.300263,0.792406 6.453348,0.792406 6.093649,0 11.969299,-2.076558 16.991687,-6.005202 2.55343,-1.997304 4.766464,-4.40404 6.539184,-7.072716 0.02113,-0.02861 0.04099,-0.05813 0.05926,-0.08856 1.399396,-2.123109 2.520276,-4.410626 3.310751,-6.789317 1.591282,-0.800694 1.712657,-2.422518 1.8304,-3.995746 0.02691,-0.359586 0.0545,-0.728368 0.09662,-1.117474 0.302019,-0.218681 0.702253,-0.391832 1.103508,-0.480848 0.302587,1.443678 0.890959,3.296786 2.750198,5.007967 0.526037,3.345155 0.144084,7.590806 -0.357769,9.463898 z"
     id="path3782"
     inkscape:connector-curvature="0" /><path
     d="m 38.423785,19.117976 c 0.826013,0.346301 1.282108,2.838646 0.555671,6.932153 -0.109567,0.617437 0.302134,1.20683 0.919685,1.316398 0.0671,0.01192 0.133866,0.01771 0.199719,0.01771 0.540116,0 1.019034,-0.38695 1.116679,-0.93717 0.64957,-3.660573 0.844861,-8.266831 -1.913626,-9.423363 -0.577925,-0.24207 -1.243618,0.02986 -1.486142,0.608127 -0.242637,0.578153 0.02952,1.243505 0.608014,1.486143 z"
     id="path3784"
     inkscape:connector-curvature="0" /><path
     d="m 45.216168,49.295557 c -4.54e-4,2.28e-4 -0.0053,0.0039 -0.0056,0.0041 -0.505713,0.370257 -0.613464,1.078755 -0.24366,1.584695 0.221973,0.30361 0.567366,0.464271 0.917414,0.464271 0.233213,0 0.468585,-0.0713 0.670916,-0.219135 l 0.026,-0.01919 c 0.501625,-0.376276 0.601996,-1.086931 0.22572,-1.588669 -0.376049,-0.50174 -1.089089,-0.60245 -1.590714,-0.226061 z"
     id="path3786"
     inkscape:connector-curvature="0" /><path
     d="m 42.673296,50.864017 c -3.886179,1.987881 -7.164912,1.909198 -7.21328,1.90704 -0.624137,-0.02169 -1.151422,0.464726 -1.175948,1.090338 -0.02453,0.626521 0.463476,1.154375 1.090111,1.178899 0.01737,6.82e-4 0.07845,0.0028 0.17985,0.0028 0.811479,0 4.193535,-0.131821 8.153401,-2.157512 0.558284,-0.285557 0.779348,-0.969643 0.493905,-1.527926 -0.285783,-0.558056 -0.969756,-0.77912 -1.528039,-0.493564 z"
     id="path3788"
     inkscape:connector-curvature="0" /><path
     d="m 22.193734,40.52449 c 0.222086,0.224585 0.514569,0.336877 0.807165,0.336877 0.288509,0 0.577244,-0.10934 0.798536,-0.328248 0.445763,-0.440995 0.449625,-1.159938 0.0087,-1.605701 l -0.03735,-0.03747 c -0.444514,-0.442016 -1.163344,-0.440314 -1.605702,0.0043 -0.442243,0.444628 -0.440313,1.163571 0.0043,1.605816 l 0.02442,0.02441 z"
     id="path3790"
     inkscape:connector-curvature="0" /><g
     id="g3792"
     transform="matrix(0.12323392,0,0,0.12323392,0,-15.397475)" /><g
     id="g3794"
     transform="matrix(0.12323392,0,0,0.12323392,0,-15.397475)" /><g
     id="g3796"
     transform="matrix(0.12323392,0,0,0.12323392,0,-15.397475)" /><g
     id="g3798"
     transform="matrix(0.12323392,0,0,0.12323392,0,-15.397475)" /><g
     id="g3800"
     transform="matrix(0.12323392,0,0,0.12323392,0,-15.397475)" /><g
     id="g3802"
     transform="matrix(0.12323392,0,0,0.12323392,0,-15.397475)" /><g
     id="g3804"
     transform="matrix(0.12323392,0,0,0.12323392,0,-15.397475)" /><g
     id="g3806"
     transform="matrix(0.12323392,0,0,0.12323392,0,-15.397475)" /><g
     id="g3808"
     transform="matrix(0.12323392,0,0,0.12323392,0,-15.397475)" /><g
     id="g3810"
     transform="matrix(0.12323392,0,0,0.12323392,0,-15.397475)" /><g
     id="g3812"
     transform="matrix(0.12323392,0,0,0.12323392,0,-15.397475)" /><g
     id="g3814"
     transform="matrix(0.12323392,0,0,0.12323392,0,-15.397475)" /><g
     id="g3816"
     transform="matrix(0.12323392,0,0,0.12323392,0,-15.397475)" /><g
     id="g3818"
     transform="matrix(0.12323392,0,0,0.12323392,0,-15.397475)" /><g
     id="g3820"
     transform="matrix(0.12323392,0,0,0.12323392,0,-15.397475)" /></svg>