<?xml version="1.0" encoding="UTF-8" standalone="no"?>
<!-- Generator: Adobe Illustrator 19.0.0, SVG Export Plug-In . SVG Version: 6.00 Build 0)  -->

<svg
   xmlns:dc="http://purl.org/dc/elements/1.1/"
   xmlns:cc="http://creativecommons.org/ns#"
   xmlns:rdf="http://www.w3.org/1999/02/22-rdf-syntax-ns#"
   xmlns:svg="http://www.w3.org/2000/svg"
   xmlns="http://www.w3.org/2000/svg"
   xmlns:sodipodi="http://sodipodi.sourceforge.net/DTD/sodipodi-0.dtd"
   xmlns:inkscape="http://www.inkscape.org/namespaces/inkscape"
   version="1.1"
   id="Capa_1"
   x="0px"
   y="0px"
   viewBox="0 0 64.000002 64.000002"
   xml:space="preserve"
   inkscape:version="0.91 r13725"
   sodipodi:docname="ewz_typ_2.svg"
   width="64"
   height="64"
   inkscape:export-filename="D:\Braugarage\Anlage\KleinerBrauhelfer\kleiner-brauhelfer-app\kleiner-brauhelfer-app\images\ewz_typ_2@2x.png"
   inkscape:export-xdpi="67.5"
   inkscape:export-ydpi="67.5"><metadata
     id="metadata3560"><rdf:RDF><cc:Work
         rdf:about=""><dc:format>image/svg+xml</dc:format><dc:type
           rdf:resource="http://purl.org/dc/dcmitype/StillImage" /><dc:title></dc:title></cc:Work></rdf:RDF></metadata><defs
     id="defs3558" /><sodipodi:namedview
     pagecolor="#ffffff"
     bordercolor="#666666"
     borderopacity="1"
     objecttolerance="10"
     gridtolerance="10"
     guidetolerance="10"
     inkscape:pageopacity="0"
     inkscape:pageshadow="2"
     inkscape:window-width="1920"
     inkscape:window-height="1137"
     id="namedview3556"
     showgrid="false"
     inkscape:zoom="3.6875145"
     inkscape:cx="85.876326"
     inkscape:cy="64.457115"
     inkscape:window-x="-8"
     inkscape:window-y="-8"
     inkscape:window-maximized="1"
     inkscape:current-layer="Capa_1" /><path
     style="fill:#a0e557"
     d="m 22.944209,17.178584 c 3.877651,3.87765 9.331431,5.21791 14.299008,4.02173 1.196179,-4.96758 -0.144201,-10.42136 -4.021733,-14.29901 -3.877532,-3.87765 -9.33155,-5.21791 -14.299127,-4.02173 -1.196179,4.96758 0.144201,10.42136 4.021852,14.29901 z"
     id="path3484"
     inkscape:connector-curvature="0" /><path
     style="fill:#d8fb93"
     d="m 23.670075,32.073364 c 3.877651,3.87765 9.331432,5.21792 14.299008,4.02185 1.19618,-4.96757 -0.1442,-10.42135 -4.021733,-14.299 -3.877532,-3.87765 -9.331431,-5.21792 -14.299008,-4.02186 -1.19606,4.96758 0.144082,10.42124 4.021733,14.29901 z"
     id="path3486"
     inkscape:connector-curvature="0" /><path
     style="fill:#ff5d5d"
     d="m 8.177141,21.894164 0,0 c 2.942836,0 5.602369,1.75389 6.761194,4.45884 l 0,0 c 4.483745,10.46476 10.331587,20.2907 17.391855,29.22214 l 4.124547,5.21791 -4.398837,-0.5117 c -7.864164,-0.91501 -15.112272,-4.70527 -20.350463,-10.64181 l -0.209305,-0.23717 c -5.3724299,-6.08869 -8.3130125,-13.87068 -8.3104036,-21.92861 1.186e-4,-0.19958 1.186e-4,-0.39643 2.372e-4,-0.5902 8.301e-4,-2.75607 2.2352317,-4.9894 4.9911754,-4.9894 l 0,0 z"
     id="path3488"
     inkscape:connector-curvature="0" /><path
     style="fill:#a0e557"
     d="m 8.177141,21.894164 0,0 c -2.7560623,0 -4.9904639,2.23333 -4.991294,4.98928 0,0.19377 -1.186e-4,0.39074 -2.372e-4,0.59008 -2.371e-4,0.64618 0.020634,1.29046 0.057989,1.93236 l 1.0571962,-0.88868 c 0.8251229,-0.69349 1.9066293,-1.00288 2.9737867,-0.85038 l 1.6430123,0.23468 0,0 c 0.791088,-1.53569 2.520787,-2.34184 4.205541,-1.96011 l 1.815318,0.41137 c -1.158943,-2.70471 -3.818476,-4.4586 -6.761312,-4.4586 z"
     id="path3490"
     inkscape:connector-curvature="0" /><circle
     style="fill:#feda9b"
     cx="46.345303"
     cy="24.028229"
     r="15.177021"
     id="circle3492" /><g
     id="g3494"
     transform="matrix(0.11858622,0,0,0.11858622,1.9999848,1.270004)"><circle
       style="fill:#d8fb93"
       cx="373.95001"
       cy="191.91299"
       r="91.987999"
       id="circle3496" /><ellipse
       style="fill:#d8fb93"
       cx="326.27701"
       cy="406.18399"
       rx="39.661999"
       ry="55.701"
       id="ellipse3498" /><ellipse
       style="fill:#d8fb93"
       cx="326.27701"
       cy="427.22198"
       rx="21.632999"
       ry="34.661999"
       id="ellipse3500" /><ellipse
       transform="matrix(-0.7071,-0.7071,0.7071,-0.7071,453.5469,1095.0981)"
       style="fill:#d8fb93"
       cx="453.57599"
       cy="453.616"
       rx="55.700001"
       ry="39.660999"
       id="ellipse3502" /><ellipse
       transform="matrix(-0.7071,-0.7071,0.7071,-0.7071,468.4235,1131.0022)"
       style="fill:#d8fb93"
       cx="468.45001"
       cy="468.487"
       rx="34.661999"
       ry="21.632999"
       id="ellipse3504" /></g><path
     d="m 20.663677,16.366624 c -0.433432,0.0676 -0.864849,0.15191 -1.293064,0.25496 -0.432958,0.10424 -0.770929,0.44232 -0.875166,0.87516 -0.64416,2.67531 -0.603723,5.49221 0.116689,8.14652 0.743298,2.73804 2.202383,5.25147 4.219298,7.26863 3.092254,3.09213 7.275857,4.79147 11.582435,4.79112 0.871845,0 1.749502,-0.0707 2.623364,-0.21263 2.714557,1.8854 5.932987,2.90121 9.307951,2.90121 4.370614,0 8.479745,-1.70195 11.570221,-4.79254 4.989634,-4.98975 6.223405,-12.58022 3.069841,-18.8877 -0.292789,-0.58558 -1.004899,-0.82299 -1.590834,-0.5302 -0.585579,0.29291 -0.823107,1.00514 -0.530199,1.59083 2.696532,5.39307 1.641352,11.88341 -2.625618,16.15026 -5.455203,5.4552 -14.3315,5.4552 -19.786704,0 -5.455203,-5.4552 -5.455203,-14.3315 0,-19.78658 4.067033,-4.06704 10.111848,-5.23428 15.399844,-2.97332 0.602181,0.25757 1.298994,-0.022 1.556326,-0.62412 0.257451,-0.60206 -0.02206,-1.29899 -0.624119,-1.55632 -2.970704,-1.27018 -6.226133,-1.63127 -9.414561,-1.04415 -2.227642,0.41007 -4.317961,1.26863 -6.170159,2.52031 -0.792038,-1.62511 -1.84532,-3.10079 -3.139452,-4.39492 -2.017152,-2.01716 -4.530587,-3.47612 -7.268624,-4.2193 -2.654197,-0.72053 -5.471094,-0.76073 -8.146518,-0.11669 -0.432958,0.10424 -0.770929,0.44233 -0.875166,0.87516 -0.64416,2.67531 -0.603722,5.49221 0.116689,8.14652 0.552375,2.03364 1.500234,3.94299 2.777526,5.61779 z m 3.844922,14.86822 c -3.298476,-3.29836 -4.714514,-7.90935 -3.861879,-12.46116 3.330019,-0.61582 6.824992,9.5e-4 9.725256,1.7284 -0.442801,2.0207 -0.49913,4.10936 -0.171002,6.14774 l -4.309897,-4.3099 c -0.462961,-0.46296 -1.213849,-0.46296 -1.676928,0 -0.462961,0.46296 -0.462961,1.21385 0,1.67693 l 7.626754,7.62676 c 0.01257,0.0126 0.02621,0.0235 0.03913,0.0353 0.689104,1.3048 1.566642,2.53501 2.632732,3.65055 -3.718033,0.0266 -7.336811,-1.42694 -10.00417,-4.09466 z M 19.920972,3.878074 c 4.551932,-0.85288 9.163395,0.56304 12.462107,3.86176 1.231637,1.23151 2.207364,2.65419 2.90394,4.2302 -0.173373,0.15926 -0.344493,0.32137 -0.5117,0.48858 -0.786701,0.7867 -1.476042,1.63459 -2.068855,2.52802 l -7.541491,-7.54149 c -0.46296,-0.46296 -1.213848,-0.46296 -1.676928,0 -0.46296,0.46296 -0.46296,1.21385 0,1.67693 l 8.01548,8.01548 c -0.157363,0.33975 -0.301801,0.68412 -0.434618,1.03182 -2.283615,-1.24706 -4.850414,-1.92407 -7.444487,-1.99225 -3.184515,-3.2865 -4.542564,-7.82088 -3.703448,-12.29905 z"
     id="path3506"
     inkscape:connector-curvature="0" /><path
     d="m 33.26038,54.839904 c -2.179852,-2.7576 -4.270764,-5.64031 -6.214629,-8.56797 -0.3624,-0.54574 -1.098109,-0.69409 -1.643724,-0.33204 -0.545497,0.3624 -0.694085,1.09822 -0.331923,1.6436 1.980034,2.98197 4.109606,5.91805 6.329896,8.72688 l 2.35109,2.97438 -1.558104,-0.1812 c -7.585605,-0.88252 -14.545905,-4.52228 -19.598508,-10.24858 l -0.209305,-0.23717 C 7.7607849,43.376884 4.9976073,36.816344 4.4670526,29.926484 l 0.5964887,-0.50138 c 0.5662492,-0.47589 1.3107335,-0.68923 2.0432406,-0.58428 l 1.6430121,0.23468 c 0.499841,0.0715 0.990432,-0.18167 1.221794,-0.63076 0.543599,-1.05518 1.731715,-1.60886 2.889472,-1.34654 l 1.230569,0.27891 c 1.789466,4.12253 3.809345,8.19194 6.013626,12.10339 0.321606,0.5704 1.044745,0.77211 1.615144,0.45074 0.570519,-0.3216 0.772352,-1.04474 0.450746,-1.61514 -2.261795,-4.0132 -4.328634,-8.19538 -6.143003,-12.42985 -1.347495,-3.14527 -4.429314,-5.1776 -7.851119,-5.1776 -0.253182,0 -0.5022131,0.0171 -0.747568,0.0468 0.1534506,-2.40955 1.162619,-4.65415 2.885203,-6.37685 0.46296,-0.46296 0.46296,-1.21385 0,-1.67681 -0.462961,-0.46296 -1.213849,-0.46296 -1.676809,0 -2.3232231,2.32322 -3.6027684,5.41227 -3.6027684,8.69782 l 0,0.17077 c -1.8144878,1.07664 -3.0343843,3.05442 -3.0350958,5.31266 l 0,0.5902 c -2.372e-4,0.64808 0.02016,1.29425 0.056566,1.93806 1.186e-4,0.0429 0.00249,0.0859 0.00735,0.12867 0.4583358,7.60932 3.4496732,14.87403 8.5431882,20.64681 l 0.209305,0.23717 c 5.440499,6.16577 12.934911,10.08481 21.102537,11.03504 l 4.398837,0.5117 c 0.04601,0.005 0.09179,0.008 0.137442,0.008 0.425961,0 0.824055,-0.22994 1.035139,-0.60799 0.233615,-0.41873 0.19211,-0.93683 -0.105305,-1.31298 l -4.124666,-5.2178 z m -25.08312,-31.76 c 1.556918,0 3.016122,0.58285 4.126326,1.58182 -1.552294,-0.006 -3.028455,0.71757 -3.973706,1.95834 l -0.8876177,-0.12677 c -1.0634812,-0.15191 -2.1401256,0.0474 -3.0709088,0.55059 l 0,-0.16009 c 8.301e-4,-2.09743 1.7079974,-3.80389 3.8059065,-3.80389 z"
     id="path3508"
     inkscape:connector-curvature="0" /><path
     d="m 23.155767,42.353964 c -0.558304,0.34236 -0.733574,1.07225 -0.391335,1.63056 l 0.0198,0.0321 c 0.223772,0.36512 0.613091,0.56613 1.012015,0.56613 0.211321,0 0.42525,-0.0564 0.618427,-0.17492 0.558304,-0.34236 0.733575,-1.07226 0.391335,-1.63056 l -0.0198,-0.0321 c -0.342121,-0.5583 -1.072257,-0.73333 -1.630442,-0.39121 z"
     id="path3510"
     inkscape:connector-curvature="0" /><path
     d="m 56.392165,14.291124 c 0.232547,0.2399 0.541702,0.3605 0.851449,0.3605 0.297295,0 0.594828,-0.11111 0.825123,-0.33441 0.470194,-0.45573 0.481815,-1.2065 0.02609,-1.67657 -0.05929,-0.0612 -0.118942,-0.12179 -0.179303,-0.18215 -0.46296,-0.46296 -1.213848,-0.46296 -1.676928,0 -0.46296,0.46296 -0.46296,1.21385 0,1.67693 0.05182,0.0516 0.102933,0.10352 0.15357,0.1557 z"
     id="path3512"
     inkscape:connector-curvature="0" /><path
     d="m 34.251287,24.028714 c 0,6.66882 5.425438,12.09414 12.094134,12.09414 6.668697,0 12.094135,-5.42544 12.094135,-12.09414 0,-6.6687 -5.42532,-12.09425 -12.094135,-12.09425 -6.668815,0 -12.094134,5.42544 -12.094134,12.09425 z m 21.8169,0 c 0,1.3469 -0.275713,2.6306 -0.773063,3.79808 l -6.578334,-3.79796 6.578452,-3.79808 c 0.497232,1.16736 0.772945,2.45094 0.772945,3.79796 z m -19.445532,0 c 0,-1.3469 0.275713,-2.6306 0.772945,-3.79796 l 6.578453,3.79808 -6.578334,3.79796 c -0.497351,-1.16748 -0.773064,-2.45118 -0.773064,-3.79808 z m 8.537141,-9.64794 0,7.59415 -6.574776,-3.79595 c 1.55099,-2.05249 3.896506,-3.4709 6.574776,-3.7982 z m -6.574776,15.49744 6.574776,-3.79594 0,7.59426 c -2.67827,-0.32718 -5.023786,-1.74559 -6.574776,-3.79832 z m 8.946145,3.79832 0,-7.59426 6.574776,3.79594 c -1.551227,2.05273 -3.896625,3.47114 -6.574776,3.79832 z m 6.574657,-15.49732 -6.574776,3.79594 0,-7.59426 c 2.67827,0.32718 5.023668,1.74559 6.574776,3.79832 z"
     id="path3514"
     inkscape:connector-curvature="0" /><path
     d="m 40.69206,41.646474 c -1.650483,0 -3.174553,0.8639 -4.291516,2.43268 -1.030159,1.44663 -1.597357,3.34971 -1.597357,5.35844 0,2.00873 0.567317,3.9118 1.597357,5.35832 1.116963,1.56865 2.641033,2.43267 4.291516,2.43267 1.650483,0 3.174553,-0.8639 4.291517,-2.43267 1.030159,-1.44652 1.597357,-3.34959 1.597357,-5.35832 0,-2.00873 -0.567317,-3.91181 -1.597357,-5.35844 -1.116964,-1.56878 -2.641034,-2.43268 -4.291517,-2.43268 z m 0,2.37149 c 1.906748,0 3.517623,2.48201 3.517623,5.41975 0,0.18594 -0.0065,0.36999 -0.01909,0.55166 -0.538144,-1.98086 -1.883505,-3.35291 -3.498412,-3.35291 -1.614907,0 -2.960268,1.37193 -3.498412,3.35291 -0.01257,-0.18179 -0.01909,-0.36584 -0.01909,-0.55166 -1.18e-4,-2.93786 1.610638,-5.41975 3.517386,-5.41975 z m -1.37975,7.91456 c 0,-1.75816 0.830459,-2.92469 1.379632,-2.92469 0.549173,0 1.379632,1.16653 1.379632,2.92469 0,1.75828 -0.830459,2.92481 -1.379632,2.92481 -0.549173,-1.1e-4 -1.379632,-1.16653 -1.379632,-2.92481 z"
     id="path3516"
     inkscape:connector-curvature="0" /><path
     d="m 59.952835,50.898104 c -1.420308,-1.42031 -3.167083,-2.36485 -4.918601,-2.65954 -1.899159,-0.31911 -3.587708,0.14752 -4.754715,1.31465 -1.167125,1.16712 -1.633999,2.85567 -1.314647,4.75483 0.294687,1.7514 1.239108,3.49806 2.659534,4.91837 1.420425,1.4203 3.167082,2.36484 4.9186,2.65953 0.390268,0.0657 0.771285,0.0981 1.141156,0.0981 1.429675,-1.2e-4 2.686452,-0.48525 3.613678,-1.41248 1.167125,-1.16724 1.63388,-2.85579 1.314528,-4.75483 -0.294568,-1.7514 -1.238989,-3.49818 -2.659533,-4.9186 z m -3.375557,6.90397 c -1.243258,-1.24326 -1.480905,-2.65539 -1.092535,-3.04376 0.110997,-0.11099 0.305241,-0.17076 0.555221,-0.17076 0.62566,0 1.600321,0.37509 2.488531,1.2633 0.612498,0.61238 1.052453,1.3469 1.207208,2.01549 0.107558,0.4645 0.06463,0.84896 -0.114673,1.02826 -0.38837,0.38849 -1.800613,0.15072 -3.043752,-1.09253 z m -5.273648,-3.8875 c -0.188671,-1.12159 0.04317,-2.07502 0.652817,-2.68455 0.471262,-0.47138 1.147915,-0.71686 1.949083,-0.71686 0.235038,0 0.480986,0.0212 0.735472,0.064 1.269347,0.21346 2.560276,0.92296 3.635023,1.99782 0.131513,0.13152 0.256977,0.26623 0.37663,0.40367 -1.781165,-1.01996 -3.702617,-1.03881 -4.844603,0.10293 -1.142222,1.14234 -1.123011,3.06463 -0.101984,4.84639 -0.137797,-0.12049 -0.272867,-0.24666 -0.404616,-0.37829 -1.074747,-1.07499 -1.784248,-2.3658 -1.997822,-3.63515 z"
     id="path3518"
     inkscape:connector-curvature="0" /><path
     d="m 57.60127,39.679254 c -0.220571,0.22057 -0.347458,0.5264 -0.347458,0.83828 0,0.31188 0.126887,0.61772 0.347458,0.83817 0.22057,0.22057 0.526404,0.34758 0.838286,0.34758 0.311882,0 0.617715,-0.12689 0.838286,-0.34758 0.22057,-0.22045 0.347457,-0.52629 0.347457,-0.83817 0,-0.31188 -0.126887,-0.61771 -0.347457,-0.83828 -0.220571,-0.22057 -0.526404,-0.34746 -0.838286,-0.34746 -0.311882,1.2e-4 -0.617716,0.127 -0.838286,0.34746 z"
     id="path3520"
     inkscape:connector-curvature="0" /><path
     d="m 50.249873,41.993934 c -0.220571,0.22045 -0.347458,0.52629 -0.347458,0.83817 0,0.31188 0.126887,0.61771 0.347458,0.83828 0.22057,0.22057 0.526404,0.34746 0.838286,0.34746 0.311881,0 0.617715,-0.12677 0.838286,-0.34746 0.22057,-0.22069 0.347457,-0.5264 0.347457,-0.83828 0,-0.31188 -0.126887,-0.61772 -0.347457,-0.83817 -0.220571,-0.22057 -0.526405,-0.34758 -0.838286,-0.34758 -0.311882,0 -0.617597,0.12689 -0.838286,0.34758 z"
     id="path3522"
     inkscape:connector-curvature="0" /><path
     d="m 54.950038,43.472344 c -0.220571,0.22058 -0.347458,0.52522 -0.347458,0.83829 0,0.31188 0.126887,0.61772 0.347458,0.83817 0.22057,0.22057 0.526404,0.34757 0.838286,0.34757 0.311881,0 0.617715,-0.12688 0.838286,-0.34757 0.221756,-0.22045 0.347457,-0.52629 0.347457,-0.83817 0,-0.31319 -0.125701,-0.61771 -0.347457,-0.83829 -0.220571,-0.22057 -0.526405,-0.34745 -0.838286,-0.34745 -0.311882,2.3e-4 -0.617835,0.12688 -0.838286,0.34745 z"
     id="path3524"
     inkscape:connector-curvature="0" /><g
     id="g3526"
     transform="matrix(0.11858622,0,0,0.11858622,-1.5203321e-5,3.270004)" /><g
     id="g3528"
     transform="matrix(0.11858622,0,0,0.11858622,-1.5203321e-5,3.270004)" /><g
     id="g3530"
     transform="matrix(0.11858622,0,0,0.11858622,-1.5203321e-5,3.270004)" /><g
     id="g3532"
     transform="matrix(0.11858622,0,0,0.11858622,-1.5203321e-5,3.270004)" /><g
     id="g3534"
     transform="matrix(0.11858622,0,0,0.11858622,-1.5203321e-5,3.270004)" /><g
     id="g3536"
     transform="matrix(0.11858622,0,0,0.11858622,-1.5203321e-5,3.270004)" /><g
     id="g3538"
     transform="matrix(0.11858622,0,0,0.11858622,-1.5203321e-5,3.270004)" /><g
     id="g3540"
     transform="matrix(0.11858622,0,0,0.11858622,-1.5203321e-5,3.270004)" /><g
     id="g3542"
     transform="matrix(0.11858622,0,0,0.11858622,-1.5203321e-5,3.270004)" /><g
     id="g3544"
     transform="matrix(0.11858622,0,0,0.11858622,-1.5203321e-5,3.270004)" /><g
     id="g3546"
     transform="matrix(0.11858622,0,0,0.11858622,-1.5203321e-5,3.270004)" /><g
     id="g3548"
     transform="matrix(0.11858622,0,0,0.11858622,-1.5203321e-5,3.270004)" /><g
     id="g3550"
     transform="matrix(0.11858622,0,0,0.11858622,-1.5203321e-5,3.270004)" /><g
     id="g3552"
     transform="matrix(0.11858622,0,0,0.11858622,-1.5203321e-5,3.270004)" /><g
     id="g3554"
     transform="matrix(0.11858622,0,0,0.11858622,-1.5203321e-5,3.270004)" /></svg>