<?xml version="1.0" encoding="UTF-8" standalone="no"?>
<!-- Created with Inkscape (http://www.inkscape.org/) -->

<svg
   xmlns:dc="http://purl.org/dc/elements/1.1/"
   xmlns:cc="http://creativecommons.org/ns#"
   xmlns:rdf="http://www.w3.org/1999/02/22-rdf-syntax-ns#"
   xmlns:svg="http://www.w3.org/2000/svg"
   xmlns="http://www.w3.org/2000/svg"
   xmlns:sodipodi="http://sodipodi.sourceforge.net/DTD/sodipodi-0.dtd"
   xmlns:inkscape="http://www.inkscape.org/namespaces/inkscape"
   width="48"
   height="48"
   viewBox="0 0 12.7 12.7"
   version="1.1"
   id="svg8"
   inkscape:version="0.91 r13725"
   sodipodi:docname="ingredients.svg"
   inkscape:export-filename="D:\ingredients2.png"
   inkscape:export-xdpi="90"
   inkscape:export-ydpi="90">
  <defs
     id="defs2" />
  <sodipodi:namedview
     id="base"
     pagecolor="#ffffff"
     bordercolor="#666666"
     borderopacity="1.0"
     inkscape:pageopacity="0.0"
     inkscape:pageshadow="2"
     inkscape:zoom="11.2"
     inkscape:cx="12.80586"
     inkscape:cy="15.929388"
     inkscape:document-units="mm"
     inkscape:current-layer="layer1"
     showgrid="true"
     units="px"
     inkscape:window-width="1588"
     inkscape:window-height="1037"
     inkscape:window-x="158"
     inkscape:window-y="103"
     inkscape:window-maximized="0">
    <inkscape:grid
       type="xygrid"
       id="grid4485" />
  </sodipodi:namedview>
  <metadata
     id="metadata5">
    <rdf:RDF>
      <cc:Work
         rdf:about="">
        <dc:format>image/svg+xml</dc:format>
        <dc:type
           rdf:resource="http://purl.org/dc/dcmitype/StillImage" />
        <dc:title />
      </cc:Work>
    </rdf:RDF>
  </metadata>
  <g
     inkscape:label="Layer 1"
     inkscape:groupmode="layer"
     id="layer1"
     transform="translate(0,-284.29998)">
    <path
       inkscape:connector-curvature="0"
       d="m 7.9546893,291.7216 c 0.208127,0.33191 0.538279,0.52207 0.907676,0.52207 1.96e-4,0 1.96e-4,0 1.96e-4,0 0.171812,0 0.341867,-0.041 0.505674,-0.12222 L 10.01507,291.89321 9.5837813,291.3602 c -0.175131,-0.27958 -0.437535,-0.45686 -0.736645,-0.50645 0.22687,-0.017 0.444175,-0.10387 0.632191,-0.26241 l 0.5736187,-0.37622 -0.5462847,-0.41469 c -0.123587,-0.11969 -0.26748,-0.20091 -0.418792,-0.25206 0.126711,-0.0953 0.236047,-0.21906 0.317852,-0.36999 l 0.39634,-0.55897 -0.659329,-0.18743 c -0.146041,-0.0611 -0.295986,-0.0922 -0.445541,-0.0922 -0.108749,0 -0.213594,0.0181 -0.313362,0.05 0.169078,-0.13491 0.299304,-0.32312 0.368616,-0.55175 l 0.27607,-0.6277 -0.68393,-0.0504 c -0.07751,-0.0151 -0.155607,-0.0227 -0.231946,-0.0227 -0.48127,0 -0.882881,0.30575 -1.026969,0.78018 l -0.220232,0.50138 c -0.136084,-0.15697 -0.284857,-0.30203 -0.444955,-0.4344 l 0.529299,-0.28115 c 0.546089,-0.21086 0.816694,-0.74699 0.661868,-1.31164 l -0.100745,-0.67806 -0.605638,0.32156 c -0.54609,0.21066 -0.816694,0.7468 -0.661868,1.31143 l 0.08317,0.56035 c -0.181575,-0.14058 -0.377596,-0.26319 -0.584747,-0.36842 l 0.258694,-0.47073 c 0.341672,-0.47541 0.274509,-1.07226 -0.164198,-1.46021 l -0.455693,-0.51153 -0.330348,0.60056 c -0.341477,0.47541 -0.274314,1.07207 0.164198,1.45982 l 0.216132,0.24288 c -0.04744,-0.0188 -0.09411,-0.0393 -0.142722,-0.056 -0.08395,-0.0291 -0.171616,0.004 -0.220622,0.0736 l -0.354949,-0.40825 c -0.211446,-0.31141 -0.534375,-0.48986 -0.888347,-0.48986 -0.184503,0 -0.365687,0.0474 -0.538866,0.14116 l -0.638048,0.25108 0.450031,0.51739 c 0.211446,0.31141 0.534375,0.48986 0.888347,0.48986 0.05506,0 0.10953,-0.006 0.163807,-0.014 -0.274313,0.10972 -0.49435,0.3321 -0.608761,0.63765 l -0.315705,0.60857 0.679244,0.0943 c 0.101134,0.0266 0.202855,0.0399 0.302819,0.04 0,0 0,0 1.95e-4,0 0.177669,0 0.343819,-0.0432 0.491031,-0.12086 -0.05369,0.16069 -0.074,0.33719 -0.04706,0.52384 l 0.01679,0.68549 0.640391,-0.24483 c 0.05291,-0.0133 0.101721,-0.0326 0.150336,-0.0517 -0.01562,0.0525 -0.03065,0.10544 -0.03944,0.16205 l -0.18548,0.66031 0.684321,-0.0459 c 0.0072,3.9e-4 0.01386,-7.4e-4 0.02109,-7.4e-4 -0.108553,0.0974 -0.200512,0.21906 -0.269432,0.36237 l -0.368421,0.57811 0.668116,0.15404 c 0.07126,0.0258 0.143112,0.0432 0.215351,0.055 -0.284271,0.0294 -0.549409,0.17786 -0.740941,0.41919 l -0.487322,0.48243 0.617548,0.29794 c 0.187627,0.12008 0.396145,0.18353 0.604077,0.18353 0.323124,0 0.630434,-0.15483 0.845004,-0.42543 l 0.02714,-0.0267 c -0.609348,1.4727 -1.92176,2.55375 -3.651597,2.88391 -0.105821,0.0203 -0.175327,0.12241 -0.155217,0.22843 0.01796,0.0935 0.09977,0.15873 0.191532,0.15873 0.0123,0 0.0244,-10e-4 0.03671,-0.004 1.759124,-0.33582 3.117417,-1.39266 3.818723,-2.84427 l -0.02694,0.57439 c -0.09684,0.57753 0.226284,1.08359 0.791118,1.23803 l 0.634729,0.25909 0.03202,-0.68511 c 0.09684,-0.57733 -0.226479,-1.08339 -0.791117,-1.23802 l -0.593143,-0.24171 c 0.106797,-0.23331 0.194069,-0.47776 0.266114,-0.72962 l 0.08259,0.29189 c 0.09079,0.57674 0.548824,0.95726 1.142357,0.92349 l 0.684321,0.0447 -0.186651,-0.65992 c -0.09079,-0.57713 -0.55429,-0.95785 -1.142552,-0.92349 l -0.491422,-0.0318 c 0.04568,-0.21438 0.07985,-0.43363 0.09977,-0.65816 l 0.163221,0.20169 z m -0.142331,-0.63512 c 8.12e-4,-0.0562 0.0052,-0.11109 0.0045,-0.16771 -0.003,-0.19115 -0.0207,-0.37955 -0.05037,-0.56425 l 0.244637,0.18606 c 0.167907,0.16244 0.370763,0.26495 0.584357,0.30224 -0.144479,0.0109 -0.2872,0.049 -0.42543,0.11734 l -0.357683,0.12632 z m -0.272752,-1.55607 0.480098,0.13628 c 0.02987,0.0125 0.06013,0.023 0.0904,0.033 -0.02382,0.0172 -0.04901,0.0308 -0.07185,0.0502 l -0.351239,0.23039 c -0.04022,-0.15385 -0.08962,-0.3038 -0.147406,-0.44983 z m -0.04608,-0.93462 c 0.07751,0.015 0.155607,0.0226 0.231947,0.0226 0,0 0,0 1.95e-4,0 0.11363,0 0.22238,-0.0184 0.324686,-0.0508 -0.116364,0.0927 -0.216522,0.21125 -0.293253,0.35241 l -0.298914,0.42133 c -0.128664,-0.28076 -0.288957,-0.54394 -0.478145,-0.78389 l 0.513484,0.0383 z m -0.500403,0.68803 -0.433436,0.0289 c -0.168298,-0.009 -0.323905,0.0188 -0.464869,0.0711 0.04159,-0.14779 0.05603,-0.3073 0.03144,-0.47521 l -0.0166,-0.67436 c 0.361782,0.28447 0.661283,0.64273 0.883467,1.04962 z m -2.469021,-1.50668 0.513875,-0.20227 c 0.01562,0.0613 0.05759,0.115 0.122026,0.13745 0.344796,0.11929 0.6605,0.29521 0.940672,0.51407 l -0.631606,0.24132 c -0.0945,0.0236 -0.179817,0.0604 -0.260646,0.1025 0,0 0,-2e-4 0,-2e-4 l 0.315705,-0.60895 -0.679244,-0.0943 c -0.101136,-0.0266 -0.202857,-0.04 -0.30282,-0.04 -0.05037,0 -0.09957,0.004 -0.147992,0.0111 0.04413,-0.0173 0.08727,-0.0375 0.13003,-0.0607 z m 2.534232,2.1498 0.09079,-0.32312 c 0.150141,0.3569 0.241514,0.74289 0.267676,1.14411 l -0.387554,-0.0894 c -0.108749,-0.0394 -0.219061,-0.0586 -0.328981,-0.0652 0.185869,-0.16225 0.315314,-0.39049 0.358073,-0.66636 z m -0.165761,2.2523 c -0.135497,-0.0867 -0.281928,-0.14272 -0.431093,-0.1679 0.374083,-0.0334 0.693693,-0.25811 0.867653,-0.62067 l 0.08864,-0.13902 c -0.01718,0.3813 -0.07439,0.74894 -0.169275,1.0994 l -0.355924,-0.17181 z"
       id="path3500" />
  </g>
</svg>
