<?xml version="1.0" encoding="UTF-8" standalone="no"?>
<!-- Created with Inkscape (http://www.inkscape.org/) -->

<svg
   xmlns:dc="http://purl.org/dc/elements/1.1/"
   xmlns:cc="http://creativecommons.org/ns#"
   xmlns:rdf="http://www.w3.org/1999/02/22-rdf-syntax-ns#"
   xmlns:svg="http://www.w3.org/2000/svg"
   xmlns="http://www.w3.org/2000/svg"
   xmlns:sodipodi="http://sodipodi.sourceforge.net/DTD/sodipodi-0.dtd"
   xmlns:inkscape="http://www.inkscape.org/namespaces/inkscape"
   width="48"
   height="48"
   viewBox="0 0 12.7 12.7"
   version="1.1"
   id="svg8"
   inkscape:version="0.91 r13725"
   sodipodi:docname="malt.svg"
   inkscape:export-filename="D:\malt.png"
   inkscape:export-xdpi="45"
   inkscape:export-ydpi="45">
  <defs
     id="defs2" />
  <sodipodi:namedview
     id="base"
     pagecolor="#ffffff"
     bordercolor="#666666"
     borderopacity="1.0"
     inkscape:pageopacity="0.0"
     inkscape:pageshadow="2"
     inkscape:zoom="7.919596"
     inkscape:cx="-10.412454"
     inkscape:cy="15.757844"
     inkscape:document-units="mm"
     inkscape:current-layer="layer1"
     showgrid="true"
     units="px"
     inkscape:window-width="1588"
     inkscape:window-height="1037"
     inkscape:window-x="158"
     inkscape:window-y="103"
     inkscape:window-maximized="0">
    <inkscape:grid
       type="xygrid"
       id="grid4485" />
  </sodipodi:namedview>
  <metadata
     id="metadata5">
    <rdf:RDF>
      <cc:Work
         rdf:about="">
        <dc:format>image/svg+xml</dc:format>
        <dc:type
           rdf:resource="http://purl.org/dc/dcmitype/StillImage" />
        <dc:title />
      </cc:Work>
    </rdf:RDF>
  </metadata>
  <g
     inkscape:label="Layer 1"
     inkscape:groupmode="layer"
     id="layer1"
     transform="translate(0,-284.29998)">
    <path
       inkscape:connector-curvature="0"
       d="m 8.9578003,289.92434 c -0.08338,-0.0833 -0.202398,-0.12041 -0.318367,-0.0993 -0.01744,0.003 -0.03722,0.007 -0.058,0.0108 0.252863,-0.57815 0.420015,-1.41173 0.475648,-1.71588 0.02121,-0.11596 -0.01586,-0.23499 -0.09928,-0.31838 -0.08338,-0.0833 -0.202398,-0.1204 -0.318367,-0.0992 -0.04181,0.008 -0.09404,0.0176 -0.153836,0.0293 l 0,-1.52345 c 0,-0.1982 -0.16069,-0.35893 -0.358925,-0.35893 -0.198199,0 -0.358926,0.16073 -0.358926,0.35893 l 0,1.68817 c -0.06428,0.0171 -0.129357,0.035 -0.194573,0.0539 0.05122,-0.13959 0.07918,-0.2903 0.07918,-0.44745 0,-0.58731 -0.770829,-1.74886 -1.007074,-2.09085 -0.06701,-0.097 -0.177381,-0.1549 -0.295324,-0.1549 -0.117907,0 -0.228313,0.0579 -0.295288,0.1549 -0.236245,0.34203 -1.007038,1.50354 -1.007038,2.09085 0,0.15715 0.02796,0.30786 0.079179,0.44745 -0.065252,-0.0189 -0.1303258,-0.0368 -0.1946095,-0.0539 l 0,-1.68817 c 0,-0.1982 -0.1607269,-0.35893 -0.3589256,-0.35893 -0.1981987,0 -0.3589257,0.16073 -0.3589257,0.35893 l 0,1.5235 c -0.059761,-0.0118 -0.1120206,-0.0217 -0.1537996,-0.0293 -0.1158971,-0.0211 -0.2349886,0.0159 -0.318367,0.0993 -0.083379,0.0834 -0.1204555,0.20239 -0.099279,0.31835 0.055633,0.30416 0.2227852,1.1377 0.4756483,1.71589 -0.020782,-0.004 -0.040559,-0.008 -0.058002,-0.0108 -0.1158971,-0.0211 -0.2349886,0.0159 -0.318367,0.0993 -0.083379,0.0834 -0.1204554,0.20239 -0.099279,0.31837 0.055633,0.30416 0.2227852,1.13769 0.4756124,1.71588 -0.020746,-0.004 -0.040522,-0.008 -0.057967,-0.0108 -0.1158971,-0.0211 -0.2349886,0.0159 -0.3183671,0.0993 -0.083379,0.0834 -0.1204554,0.20239 -0.099279,0.31836 0.0748,0.40893 0.3510653,1.77528 0.7663781,2.19056 0.2460076,0.24597 0.5730248,0.38144 0.9208957,0.38144 0.236209,0 0.462727,-0.0626 0.660854,-0.17968 l 0,0.92602 c 0,0.1982 0.160727,0.35893 0.358925,0.35893 0.198235,0 0.358926,-0.16073 0.358926,-0.35893 l 0,-0.92609 c 0.198163,0.1171 0.424681,0.17971 0.66089,0.17971 0.347871,0 0.674924,-0.13546 0.920896,-0.38144 0.415277,-0.41528 0.691578,-1.78167 0.766378,-2.19055 0.02121,-0.11601 -0.01586,-0.235 -0.09928,-0.31837 -0.08338,-0.0833 -0.202398,-0.12042 -0.318367,-0.0992 -0.01744,0.003 -0.03722,0.007 -0.05797,0.0108 0.252827,-0.57816 0.419978,-1.41173 0.475612,-1.71588 0.02121,-0.11597 -0.01586,-0.23498 -0.09924,-0.31837 z m -3.214251,2.00134 c -0.110406,0.1104 -0.257206,0.17121 -0.413375,0.17121 -0.1561326,0 -0.3028973,-0.0608 -0.4133029,-0.17121 -0.1325153,-0.13251 -0.3166441,-0.6955 -0.4560509,-1.28266 0.5871666,0.13941 1.1501418,0.32354 1.2826568,0.45602 0.227954,0.22791 0.227954,0.59876 7.2e-5,0.82664 z m -3.6e-5,-2.94933 c 0.227918,0.22788 0.227918,0.59872 3.6e-5,0.8266 -0.110406,0.11041 -0.257206,0.17121 -0.413375,0.17121 -0.1561326,0 -0.3028973,-0.0608 -0.4133029,-0.17117 -0.1325153,-0.13255 -0.3166441,-0.69553 -0.4560509,-1.28269 0.5872024,0.13941 1.1501778,0.32354 1.2826928,0.45605 z m 2.49561,-0.45605 c -0.139407,0.58716 -0.323535,1.15014 -0.456051,1.28265 -0.11037,0.11041 -0.25717,0.17121 -0.413303,0.17121 -0.156168,0 -0.302933,-0.0608 -0.413339,-0.17117 -0.227917,-0.22795 -0.227917,-0.59879 -3.6e-5,-0.82664 0.132588,-0.13251 0.695563,-0.31664 1.282729,-0.45605 z m -1.282693,2.57878 c 0.132552,-0.13252 0.695598,-0.31669 1.282837,-0.45609 -0.139263,0.58698 -0.323428,1.14992 -0.456195,1.28269 -0.11037,0.1104 -0.25717,0.17121 -0.413303,0.17121 -0.156168,0 -0.302933,-0.0608 -0.413339,-0.17121 -0.227882,-0.22788 -0.227882,-0.59873 0,-0.8266 z m -0.606476,-4.82577 c 0.316644,0.51381 0.58451,1.04204 0.58451,1.22947 0,0.32228 -0.262231,0.58451 -0.58451,0.58451 -0.32228,0 -0.584475,-0.26223 -0.584475,-0.58451 0,-0.18739 0.267866,-0.71566 0.584475,-1.22947 z m -0.606405,7.77509 c -0.110406,0.11041 -0.257206,0.17121 -0.413375,0.17121 -0.1561326,0 -0.3028973,-0.0608 -0.4133029,-0.17121 -0.1325153,-0.13252 -0.3166441,-0.69549 -0.4560509,-1.28266 0.5871666,0.13941 1.1501418,0.32354 1.2826568,0.45602 0.227954,0.22792 0.227954,0.59876 7.2e-5,0.82664 z m 2.039523,0 c -0.11037,0.11041 -0.25717,0.17121 -0.413303,0.17121 -0.156168,0 -0.302933,-0.0608 -0.413339,-0.17121 -0.227917,-0.22788 -0.227917,-0.59872 -3.6e-5,-0.82661 0.132552,-0.13251 0.695599,-0.31668 1.282837,-0.45609 -0.139227,0.587 -0.323392,1.1499 -0.456159,1.2827 z"
       id="path3564" />
  </g>
</svg>
