<?xml version="1.0" encoding="UTF-8" standalone="no"?>
<!-- Created with Inkscape (http://www.inkscape.org/) -->

<svg
   xmlns:dc="http://purl.org/dc/elements/1.1/"
   xmlns:cc="http://creativecommons.org/ns#"
   xmlns:rdf="http://www.w3.org/1999/02/22-rdf-syntax-ns#"
   xmlns:svg="http://www.w3.org/2000/svg"
   xmlns="http://www.w3.org/2000/svg"
   xmlns:sodipodi="http://sodipodi.sourceforge.net/DTD/sodipodi-0.dtd"
   xmlns:inkscape="http://www.inkscape.org/namespaces/inkscape"
   width="48"
   height="48"
   viewBox="0 0 12.7 12.7"
   version="1.1"
   id="svg8"
   inkscape:version="0.92.0 r15299"
   sodipodi:docname="nachgaerung.svg"
   inkscape:export-filename="D:\app\project\kleiner-brauhelfer\images\nachgaerung@2x.png"
   inkscape:export-xdpi="96"
   inkscape:export-ydpi="96">
  <defs
     id="defs2" />
  <sodipodi:namedview
     id="base"
     pagecolor="#ffffff"
     bordercolor="#666666"
     borderopacity="1.0"
     inkscape:pageopacity="0.0"
     inkscape:pageshadow="2"
     inkscape:zoom="11.2"
     inkscape:cx="21.526783"
     inkscape:cy="24.944124"
     inkscape:document-units="mm"
     inkscape:current-layer="layer1"
     showgrid="true"
     units="px"
     inkscape:window-width="1440"
     inkscape:window-height="838"
     inkscape:window-x="-8"
     inkscape:window-y="-8"
     inkscape:window-maximized="1">
    <inkscape:grid
       type="xygrid"
       id="grid4485" />
  </sodipodi:namedview>
  <metadata
     id="metadata5">
    <rdf:RDF>
      <cc:Work
         rdf:about="">
        <dc:format>image/svg+xml</dc:format>
        <dc:type
           rdf:resource="http://purl.org/dc/dcmitype/StillImage" />
        <dc:title />
      </cc:Work>
    </rdf:RDF>
  </metadata>
  <g
     inkscape:label="Layer 1"
     inkscape:groupmode="layer"
     id="layer1"
     transform="translate(0,-284.29998)">
    <path
       style="fill:#000000;fill-opacity:1;stroke:none;stroke-width:1.50000858;stroke-linecap:butt;stroke-miterlimit:4;stroke-dasharray:none;stroke-dashoffset:0;stroke-opacity:1"
       d="M 17.388672 4 C 13.726258 4 10.777344 6.7341602 10.777344 10.130859 L 10.777344 12.583984 L 37.222656 12.583984 L 37.222656 10.130859 C 37.222656 6.7341602 34.273741 4 30.611328 4 L 17.388672 4 z M 10.777344 14.644531 L 10.777344 18.714844 L 10.777344 28.525391 C 10.777344 28.525391 18.711441 41.254484 24.015625 41.3125 C 29.288824 41.370327 37.222656 28.525391 37.222656 28.525391 L 37.222656 18.714844 L 37.222656 14.644531 L 10.777344 14.644531 z M 24.070312 18.603516 C 25.309473 18.603516 26.284565 18.967337 26.994141 19.695312 C 27.703716 20.419805 28.056641 21.407757 28.056641 22.658203 C 28.056641 23.8982 27.704161 24.883776 26.998047 25.615234 C 26.291933 26.34321 25.316396 26.707031 24.070312 26.707031 C 22.827691 26.707031 21.852598 26.34321 21.146484 25.615234 C 20.44037 24.883776 20.087891 23.8982 20.087891 22.658203 C 20.087891 21.407757 20.44037 20.419805 21.146484 19.695312 C 21.852598 18.967337 22.827691 18.603516 24.070312 18.603516 z M 16.333984 18.615234 C 16.659351 18.615234 16.951337 18.633561 17.210938 18.671875 C 17.474 18.706706 17.715974 18.753287 17.9375 18.8125 C 18.16941 18.87868 18.379494 18.953514 18.566406 19.037109 C 18.75678 19.117222 18.922538 19.192056 19.064453 19.261719 L 19.064453 21.148438 L 18.835938 21.148438 C 18.73902 21.064842 18.617588 20.966506 18.46875 20.851562 C 18.323374 20.736619 18.155662 20.623179 17.96875 20.511719 C 17.778376 20.400258 17.573088 20.305145 17.351562 20.228516 C 17.130037 20.151887 16.893303 20.113281 16.640625 20.113281 C 16.360256 20.113281 16.092522 20.159438 15.839844 20.25 C 15.587166 20.337078 15.355228 20.483948 15.140625 20.689453 C 14.936406 20.887992 14.768695 21.151101 14.640625 21.478516 C 14.516017 21.80593 14.455078 22.203182 14.455078 22.669922 C 14.455078 23.157561 14.521258 23.565163 14.65625 23.892578 C 14.794704 24.219993 14.968101 24.475973 15.175781 24.664062 C 15.386923 24.855635 15.623212 24.99453 15.882812 25.078125 C 16.142413 25.158237 16.397713 25.197266 16.650391 25.197266 C 16.892685 25.197266 17.131816 25.161036 17.367188 25.087891 C 17.60602 25.014745 17.826586 24.916409 18.027344 24.791016 C 18.19695 24.690005 18.354624 24.58174 18.5 24.466797 C 18.645376 24.351853 18.763966 24.251564 18.857422 24.167969 L 19.064453 24.167969 L 19.064453 26.029297 C 18.870618 26.116375 18.686294 26.196809 18.509766 26.273438 C 18.333237 26.350066 18.14696 26.416926 17.953125 26.472656 C 17.700447 26.545802 17.463713 26.602311 17.242188 26.640625 C 17.020662 26.678939 16.715795 26.697266 16.328125 26.697266 C 15.753542 26.697266 15.222424 26.61208 14.734375 26.441406 C 14.249787 26.270733 13.833971 26.015599 13.484375 25.677734 C 13.134779 25.33987 12.861804 24.919117 12.667969 24.414062 C 12.477595 23.909008 12.382812 23.325858 12.382812 22.664062 C 12.382812 22.047547 12.474752 21.4879 12.658203 20.986328 C 12.841654 20.484757 13.107436 20.054076 13.457031 19.695312 C 13.792781 19.350482 14.208153 19.084574 14.703125 18.896484 C 15.201558 18.708395 15.745556 18.615234 16.333984 18.615234 z M 32.279297 18.615234 C 33.248473 18.615234 33.987276 18.819459 34.496094 19.230469 C 35.004911 19.637996 35.259766 20.215969 35.259766 20.964844 C 35.259766 21.455966 35.13638 21.922876 34.890625 22.365234 C 34.648331 22.807593 34.275332 23.264152 33.773438 23.734375 C 33.458455 24.026958 33.142662 24.297619 32.824219 24.544922 C 32.505775 24.788741 32.279524 24.959113 32.144531 25.056641 L 35.617188 25.056641 L 35.617188 26.544922 L 29.546875 26.544922 L 29.546875 25.259766 C 30.010695 24.921901 30.475633 24.563256 30.939453 24.183594 C 31.406734 23.803932 31.780178 23.47634 32.060547 23.201172 C 32.479369 22.793645 32.776597 22.439752 32.953125 22.136719 C 33.129653 21.833686 33.21875 21.534348 33.21875 21.238281 C 33.21875 20.883001 33.103449 20.609541 32.875 20.417969 C 32.650013 20.222913 32.326136 20.125 31.900391 20.125 C 31.581947 20.125 31.245635 20.189906 30.892578 20.322266 C 30.542983 20.454625 30.217152 20.624573 29.916016 20.830078 L 29.75 20.830078 L 29.75 19.101562 C 29.995755 18.993585 30.358272 18.885321 30.835938 18.777344 C 31.317064 18.669367 31.79817 18.615234 32.279297 18.615234 z M 24.076172 20.072266 C 23.823494 20.072266 23.584362 20.118423 23.359375 20.208984 C 23.137849 20.299546 22.933006 20.449215 22.746094 20.658203 C 22.573027 20.853259 22.431075 21.121966 22.320312 21.466797 C 22.213011 21.808144 22.160156 22.205395 22.160156 22.658203 C 22.160156 23.12146 22.210613 23.516335 22.314453 23.84375 C 22.421755 24.167682 22.563261 24.433167 22.736328 24.638672 C 22.909395 24.844177 23.11184 24.996222 23.34375 25.09375 C 23.57566 25.191278 23.820033 25.240234 24.076172 25.240234 C 24.332311 25.240234 24.574731 25.191278 24.806641 25.09375 C 25.038551 24.992739 25.240995 24.837894 25.414062 24.628906 C 25.607898 24.392053 25.752247 24.113417 25.845703 23.792969 C 25.939159 23.469037 25.986328 23.089689 25.986328 22.654297 C 25.986328 22.187557 25.93152 21.790305 25.824219 21.462891 C 25.716917 21.135476 25.577364 20.869991 25.404297 20.667969 C 25.227768 20.458981 25.022926 20.306935 24.791016 20.212891 C 24.562567 20.118846 24.325389 20.072266 24.076172 20.072266 z "
       transform="matrix(0.26458333,0,0,0.26458333,0,284.29998)"
       id="rect4500" />
    <path
       style="fill:none;fill-rule:evenodd;stroke:#000000;stroke-width:0.39700001;stroke-linecap:round;stroke-linejoin:miter;stroke-miterlimit:4;stroke-dasharray:none;stroke-opacity:1"
       d="m 8.7987738,292.49598 0.6996499,3.2444"
       id="path4504"
       inkscape:connector-curvature="0" />
    <path
       style="fill:none;fill-rule:evenodd;stroke:#000000;stroke-width:0.39687726;stroke-linecap:round;stroke-linejoin:miter;stroke-miterlimit:4;stroke-dasharray:none;stroke-opacity:1"
       d="m 3.9012259,292.49598 -0.6996487,3.2444"
       id="path4504-2"
       inkscape:connector-curvature="0" />
  </g>
</svg>
