<?xml version="1.0" encoding="UTF-8" standalone="no"?>
<!-- Created with Inkscape (http://www.inkscape.org/) -->

<svg
   xmlns:dc="http://purl.org/dc/elements/1.1/"
   xmlns:cc="http://creativecommons.org/ns#"
   xmlns:rdf="http://www.w3.org/1999/02/22-rdf-syntax-ns#"
   xmlns:svg="http://www.w3.org/2000/svg"
   xmlns="http://www.w3.org/2000/svg"
   xmlns:sodipodi="http://sodipodi.sourceforge.net/DTD/sodipodi-0.dtd"
   xmlns:inkscape="http://www.inkscape.org/namespaces/inkscape"
   width="48"
   height="48"
   viewBox="0 0 12.7 12.7"
   version="1.1"
   id="svg8"
   inkscape:version="0.91 r13725"
   sodipodi:docname="yeast.svg"
   inkscape:export-filename="D:\yeast2.png"
   inkscape:export-xdpi="90"
   inkscape:export-ydpi="90">
  <defs
     id="defs2" />
  <sodipodi:namedview
     id="base"
     pagecolor="#ffffff"
     bordercolor="#666666"
     borderopacity="1.0"
     inkscape:pageopacity="0.0"
     inkscape:pageshadow="2"
     inkscape:zoom="7.919596"
     inkscape:cx="27.450023"
     inkscape:cy="11.198829"
     inkscape:document-units="mm"
     inkscape:current-layer="layer1"
     showgrid="true"
     units="px"
     inkscape:window-width="1588"
     inkscape:window-height="1037"
     inkscape:window-x="158"
     inkscape:window-y="103"
     inkscape:window-maximized="0">
    <inkscape:grid
       type="xygrid"
       id="grid4485" />
  </sodipodi:namedview>
  <metadata
     id="metadata5">
    <rdf:RDF>
      <cc:Work
         rdf:about="">
        <dc:format>image/svg+xml</dc:format>
        <dc:type
           rdf:resource="http://purl.org/dc/dcmitype/StillImage" />
        <dc:title />
      </cc:Work>
    </rdf:RDF>
  </metadata>
  <g
     inkscape:label="Layer 1"
     inkscape:groupmode="layer"
     id="layer1"
     transform="translate(0,-284.29998)">
    <g
       transform="matrix(0.02066706,0,0,0.02066706,1.0592325,285.35921)"
       id="g3646">
      <g
         id="g3648">
        <path
           inkscape:connector-curvature="0"
           d="M 454.416,407.678 326,179.381 326,58.286 C 337.641,54.159 346,43.038 346,30 346,13.458 332.542,0 316,0 L 196,0 c -16.542,0 -30,13.458 -30,30 0,13.038 8.359,24.159 20,28.286 L 186,179.381 57.584,407.678 C 45.256,429.594 45.475,455.637 58.168,477.341 70.86,499.043 93.448,512 118.59,512 l 274.82,0 c 25.142,0 47.729,-12.957 60.422,-34.659 12.693,-21.704 12.912,-47.747 0.584,-69.663 z M 204.716,186.902 C 205.558,185.406 206,183.717 206,182 l 0,-122 10,0 c 5.522,0 10,-4.478 10,-10 0,-5.522 -4.478,-10 -10,-10 l -20,0 c -5.514,0 -10,-4.486 -10,-10 0,-5.514 4.486,-10 10,-10 l 120,0 c 5.514,0 10,4.486 10,10 0,5.514 -4.486,10 -10,10 l -20,0 c -5.522,0 -10,4.478 -10,10 0,5.522 4.478,10 10,10 l 10,0 0,122 c 0,1.718 0.442,3.405 1.284,4.902 l 58.941,104.787 c -35.995,-2.915 -71.865,4.365 -104.821,21.43 -42.366,21.924 -89.529,25.784 -134,11.227 L 204.716,186.902 Z M 436.567,467.244 C 427.502,482.745 411.368,492 393.41,492 l -274.82,0 c -17.958,0 -34.092,-9.255 -43.157,-24.756 -9.067,-15.503 -9.224,-34.106 -0.417,-49.762 l 42.408,-75.392 c 20.576,7.185 41.84,10.812 63.437,10.812 3.197,0 6.402,-0.079 9.613,-0.238 27.905,-1.382 54.862,-8.711 80.124,-21.784 33.792,-17.496 70.959,-23.536 107.783,-17.581 l 58.604,104.183 c 8.806,15.656 8.65,34.259 -0.418,49.762 z"
           id="path3650" />
      </g>
    </g>
  </g>
</svg>
